HIERARCHY
ROOT hip
{
  OFFSET 278.721 91.3948 -11.1141
  CHANNELS 6 Xposition Yposition Zposition Zrotation Xrotation Yrotation
  JOINT abdomen
  {
    OFFSET 0 20.6881 -0.73152
    CHANNELS 3 Zrotation Xrotation Yrotation
    JOINT chest
    {
      OFFSET 0 11.7043 -0.48768
      CHANNELS 3 Zrotation Xrotation Yrotation
      JOINT neck
      {
        OFFSET 0 22.1894 -2.19456
        CHANNELS 3 Zrotation Xrotation Yrotation
        JOINT head
        {
          OFFSET -0.24384 7.07133 1.2192
          CHANNELS 3 Zrotation Xrotation Yrotation
          JOINT leftEye
          {
            OFFSET 4.14528 8.04674 8.04672
            CHANNELS 3 Zrotation Xrotation Yrotation
            End Site
            {
              OFFSET 1 0 0
            }
          }
          JOINT rightEye
          {
            OFFSET -3.6576 8.04674 8.04672
            CHANNELS 3 Zrotation Xrotation Yrotation
            End Site
            {
              OFFSET 1 0 0
            }
          }
        }
      }
      JOINT rCollar
      {
        OFFSET -2.68224 19.2634 -4.8768
        CHANNELS 3 Zrotation Xrotation Yrotation
        JOINT rShldr
        {
          OFFSET -8.77824 -1.95073 1.46304
          CHANNELS 3 Zrotation Xrotation Yrotation
          JOINT rForeArm
          {
            OFFSET -28.1742 -1.7115 0.48768
            CHANNELS 3 Zrotation Xrotation Yrotation
            JOINT rHand
            {
              OFFSET -22.5879 0.773209 7.07136
              CHANNELS 3 Zrotation Xrotation Yrotation
              JOINT rThumb1
              {
                OFFSET -1.2192 -0.487915 3.41376
                CHANNELS 3 Zrotation Xrotation Yrotation
                JOINT rThumb2
                {
                  OFFSET -3.37035 -0.52449 3.41376
                  CHANNELS 3 Zrotation Xrotation Yrotation
                  End Site
                  {
                    OFFSET -1.78271 -1.18214 1.43049
                  }
                }
              }
              JOINT rIndex1
              {
                OFFSET -7.75947 0.938293 5.60832
                CHANNELS 3 Zrotation Xrotation Yrotation
                JOINT rIndex2
                {
                  OFFSET -2.54057 -0.884171 1.56538
                  CHANNELS 3 Zrotation Xrotation Yrotation
                  End Site
                  {
                    OFFSET -1.62519 -0.234802 1.16502
                  }
                }
              }
              JOINT rMid1
              {
                OFFSET -8.24714 1.18213 3.41376
                CHANNELS 3 Zrotation Xrotation Yrotation
                JOINT rMid2
                {
                  OFFSET -3.10165 -0.590103 1.0647
                  CHANNELS 3 Zrotation Xrotation Yrotation
                  End Site
                  {
                    OFFSET -2.48547 -0.328903 0.83742
                  }
                }
              }
              JOINT rRing1
              {
                OFFSET -8.82822 0.546677 1.51678
                CHANNELS 3 Zrotation Xrotation Yrotation
                JOINT rRing2
                {
                  OFFSET -2.60934 -0.819778 -0.0198488
                  CHANNELS 3 Zrotation Xrotation Yrotation
                  End Site
                  {
                    OFFSET -2.33842 -0.294052 0.168128
                  }
                }
              }
              JOINT rPinky1
              {
                OFFSET -8.27202 -0.0477905 -0.4584
                CHANNELS 3 Zrotation Xrotation Yrotation
                JOINT rPinky2
                {
                  OFFSET -1.82734 -0.647385 -0.700984
                  CHANNELS 3 Zrotation Xrotation Yrotation
                  End Site
                  {
                    OFFSET -1.69225 -0.51767 -0.607171
                  }
                }
              }
            }
          }
        }
      }
      JOINT lCollar
      {
        OFFSET 2.68224 19.2634 -4.8768
        CHANNELS 3 Zrotation Xrotation Yrotation
        JOINT lShldr
        {
          OFFSET 8.77824 -1.95073 1.46304
          CHANNELS 3 Zrotation Xrotation Yrotation
          JOINT lForeArm
          {
            OFFSET 28.1742 -1.7115 0.48768
            CHANNELS 3 Zrotation Xrotation Yrotation
            JOINT lHand
            {
              OFFSET 22.5879 0.773209 7.07136
              CHANNELS 3 Zrotation Xrotation Yrotation
              JOINT lThumb1
              {
                OFFSET 1.2192 -0.487915 3.41376
                CHANNELS 3 Zrotation Xrotation Yrotation
                JOINT lThumb2
                {
                  OFFSET 3.37035 -0.52449 3.41376
                  CHANNELS 3 Zrotation Xrotation Yrotation
                  End Site
                  {
                    OFFSET 1.78271 -1.18214 1.43049
                  }
                }
              }
              JOINT lIndex1
              {
                OFFSET 7.75947 0.938293 5.60832
                CHANNELS 3 Zrotation Xrotation Yrotation
                JOINT lIndex2
                {
                  OFFSET 2.54057 -0.884171 1.56538
                  CHANNELS 3 Zrotation Xrotation Yrotation
                  End Site
                  {
                    OFFSET 1.62519 -0.234802 1.16502
                  }
                }
              }
              JOINT lMid1
              {
                OFFSET 8.24714 1.18213 3.41376
                CHANNELS 3 Zrotation Xrotation Yrotation
                JOINT lMid2
                {
                  OFFSET 3.10165 -0.590103 1.0647
                  CHANNELS 3 Zrotation Xrotation Yrotation
                  End Site
                  {
                    OFFSET 2.48547 -0.328903 0.83742
                  }
                }
              }
              JOINT lRing1
              {
                OFFSET 8.82822 0.546677 1.51678
                CHANNELS 3 Zrotation Xrotation Yrotation
                JOINT lRing2
                {
                  OFFSET 2.60934 -0.819778 -0.0198488
                  CHANNELS 3 Zrotation Xrotation Yrotation
                  End Site
                  {
                    OFFSET 2.33842 -0.294052 0.168128
                  }
                }
              }
              JOINT lPinky1
              {
                OFFSET 8.27202 -0.0477905 -0.4584
                CHANNELS 3 Zrotation Xrotation Yrotation
                JOINT lPinky2
                {
                  OFFSET 1.82734 -0.647385 -0.700984
                  CHANNELS 3 Zrotation Xrotation Yrotation
                  End Site
                  {
                    OFFSET 1.69225 -0.51767 -0.607171
                  }
                }
              }
            }
          }
        }
      }
    }
  }
  JOINT rButtock
  {
    OFFSET -8.77824 4.35084 1.2192
    CHANNELS 3 Zrotation Xrotation Yrotation
    JOINT rThigh
    {
      OFFSET 0 -1.70687 -2.19456
      CHANNELS 3 Zrotation Xrotation Yrotation
      JOINT rShin
      {
        OFFSET 0 -36.8199 0.73152
        CHANNELS 3 Zrotation Xrotation Yrotation
        JOINT rFoot
        {
          OFFSET 0.73152 -45.1104 -5.12064
          CHANNELS 3 Zrotation Xrotation Yrotation
          End Site
          {
            OFFSET -1.1221 -3.69964 12.103
          }
        }
      }
    }
  }
  JOINT lButtock
  {
    OFFSET 8.77824 4.35084 1.2192
    CHANNELS 3 Zrotation Xrotation Yrotation
    JOINT lThigh
    {
      OFFSET 0 -1.70687 -2.19456
      CHANNELS 3 Zrotation Xrotation Yrotation
      JOINT lShin
      {
        OFFSET 0 -36.8199 0.73152
        CHANNELS 3 Zrotation Xrotation Yrotation
        JOINT lFoot
        {
          OFFSET -0.73152 -45.1104 -5.12064
          CHANNELS 3 Zrotation Xrotation Yrotation
          End Site
          {
            OFFSET 1.1221 -3.69964 12.103
          }
        }
      }
    }
  }
}
MOTION
Frames:	4
Frame Time:	0.00833333
258.38 90.1195 -13.1243 12.1436 6.48144 94.9806 -11.3681 15.3334 -2.07549 5.21675 -3.6381 -0.580499 0.235167 -9.52189 0.92099 0.896794 2.81379 1.85712 -0 0 0 -0 0 0 7.45652e-014 -1.52216e-011 -3.42754e-013 83.7416 25.5078 -33.2337 -18.3284 -11.0442 34.7612 -0.389292 -17.464 -2.53417 -9.32345e-010 1.19589e-009 9.93446e-011 -1.6055e-009 2.08301e-009 1.61512e-010 -9.32337e-010 1.19589e-009 9.93383e-011 7.73091 5.47488 0.417314 -9.32345e-010 1.19589e-009 9.93478e-011 2.90554 0.965183 0.102902 -9.32336e-010 1.19589e-009 9.93494e-011 10.2786 0.731801 0.0259123 -9.32355e-010 1.19589e-009 9.93542e-011 2.22167 -0.733487 -0.20892 7.45282e-014 -1.52216e-011 -3.42953e-013 -39.2703 46.961 -34.1935 27.7344 -29.2118 -65.9925 0.211437 -12.9871 1.85746 -1.21077e-010 -1.72575e-009 4.2258e-009 -2.53379e-010 -3.00339e-009 7.30907e-009 -1.21087e-010 -1.72575e-009 4.2258e-009 -7.73091 5.47488 -0.417314 -1.21078e-010 -1.72574e-009 4.22579e-009 -2.90554 0.965183 -0.102902 -1.21086e-010 -1.72575e-009 4.22579e-009 -10.2786 0.731801 -0.0259123 -1.21076e-010 -1.72575e-009 4.22579e-009 -2.22167 -0.733487 0.20892 -2.03217e-016 0 -3.88251e-019 -11.1405 -11.383 -0.498805 -0.100807 28.5399 0.233594 -2.33021 -12.3716 -6.87533 2.03217e-016 0 3.88251e-019 -4.97671 6.35847 1.71708 0.151961 21.3128 -0.249632 1.83451 -11.6778 4.16735 
258.902 89.8835 -12.7537 12.0934 6.51985 95.0286 -11.3993 15.2881 -1.96666 5.18529 -3.67708 -0.54193 0.162596 -9.43357 0.893724 0.921824 2.51587 1.83042 -0 0 0 -0 0 0 1.54781e-013 -8.87446e-012 -2.53796e-013 83.6792 24.9215 -33.6879 -18.1801 -10.8818 34.4249 -0.379305 -17.2384 -2.49943 -3.85393e-010 8.10371e-010 -1.20481e-010 -6.6036e-010 1.40993e-009 -2.13591e-010 -3.85384e-010 8.10368e-010 -1.20491e-010 7.73091 5.47488 0.417314 -3.85393e-010 8.10367e-010 -1.20479e-010 2.90554 0.965183 0.102902 -3.85385e-010 8.10367e-010 -1.20477e-010 10.2786 0.731801 0.0259123 -3.85401e-010 8.10371e-010 -1.20471e-010 2.22167 -0.733487 -0.20892 1.54743e-013 -8.87446e-012 -2.53974e-013 -39.1201 46.624 -34.3259 27.7417 -29.2469 -66.0497 0.204647 -12.7856 1.8276 1.35598e-010 -7.13248e-010 1.92857e-009 2.12953e-010 -1.24414e-009 3.3382e-009 1.35589e-010 -7.13243e-010 1.92857e-009 -7.73091 5.47488 -0.417314 1.35597e-010 -7.13239e-010 1.92857e-009 -2.90554 0.965183 -0.102902 1.35589e-010 -7.13243e-010 1.92857e-009 -10.2786 0.731801 -0.0259123 1.35598e-010 -7.1324e-010 1.92856e-009 -2.22167 -0.733487 0.20892 -2.03217e-016 0 -3.88251e-019 -11.1301 -10.9177 -0.695342 -0.0936317 28.1602 0.217012 -2.42317 -11.9742 -7.43665 2.03217e-016 0 3.88251e-019 -4.85059 6.46984 1.66071 0.155303 21.7659 -0.256491 1.83436 -12.1757 4.04857 
259.502 89.6599 -12.4958 12.0766 6.48861 95.0897 -11.318 15.3099 -1.86067 5.1172 -3.773 -0.500974 0.0642925 -9.30375 0.861376 0.975839 2.1819 1.80473 -0 0 0 -0 0 0 1.3707e-013 -1.40192e-012 -5.50478e-014 83.6235 24.3562 -34.0968 -18.0135 -10.7005 34.0523 -0.364935 -16.8969 -2.44713 5.49677e-010 1.27991e-010 -3.22882e-010 9.54158e-010 2.17156e-010 -5.53841e-010 5.49687e-010 1.27992e-010 -3.22899e-010 7.73091 5.47488 0.417314 5.49676e-010 1.27989e-010 -3.22883e-010 2.90554 0.965183 0.102902 5.49683e-010 1.27989e-010 -3.22879e-010 10.2786 0.731801 0.0259123 5.49673e-010 1.2799e-010 -3.22872e-010 2.22167 -0.733487 -0.20892 1.3702e-013 -1.40192e-012 -5.51969e-014 -39.102 46.2871 -34.3487 27.7445 -29.2608 -66.0725 0.194123 -12.4577 1.7792 4.6688e-010 6.49895e-010 -1.2763e-009 8.17294e-010 1.12501e-009 -2.20242e-009 4.66871e-010 6.49902e-010 -1.2763e-009 -7.73091 5.47488 -0.417314 4.66878e-010 6.49904e-010 -1.2763e-009 -2.90554 0.965183 -0.102902 4.6687e-010 6.49901e-010 -1.2763e-009 -10.2786 0.731801 -0.0259123 4.66879e-010 6.49903e-010 -1.27631e-009 -2.22167 -0.733487 0.20892 -2.03217e-016 0 -3.88251e-019 -11.0525 -10.4519 -0.997852 -0.0891584 27.9625 0.204564 -2.50008 -11.4619 -8.02392 2.03217e-016 0 3.88251e-019 -4.63962 6.56429 1.56428 0.158777 22.3001 -0.266079 1.8489 -12.7103 3.97878 
260.146 89.4239 -12.3783 12.0579 6.36741 95.1397 -11.1158 15.3537 -1.74064 5.00036 -3.88437 -0.454848 -0.0283455 -9.19825 0.825976 1.02714 1.81959 1.76959 -0 0 0 -0 0 0 8.41575e-014 5.3245e-012 1.48463e-013 83.5325 23.7653 -34.3821 -17.8256 -10.4992 33.6332 -0.343441 -16.402 -2.37135 1.45577e-009 -5.4085e-010 -5.0325e-010 2.51838e-009 -9.52128e-010 -8.56091e-010 1.45578e-009 -5.40844e-010 -5.03275e-010 7.73091 5.47488 0.417314 1.45577e-009 -5.40849e-010 -5.03255e-010 2.90554 0.965183 0.102902 1.45578e-009 -5.4085e-010 -5.03249e-010 10.2786 0.731801 0.0259123 1.45577e-009 -5.40851e-010 -5.0324e-010 2.22167 -0.733487 -0.20892 8.40968e-014 5.3245e-012 1.48343e-013 -39.1827 45.9648 -34.2924 27.7424 -29.2511 -66.0565 0.181768 -12.0581 1.7204 7.72877e-010 1.93679e-009 -4.34979e-009 1.37655e-009 3.36187e-009 -7.51624e-009 7.72868e-010 1.9368e-009 -4.34978e-009 -7.73091 5.47488 -0.417314 7.72875e-010 1.9368e-009 -4.34979e-009 -2.90554 0.965183 -0.102902 7.72866e-010 1.93679e-009 -4.34979e-009 -10.2786 0.731801 -0.0259123 7.72876e-010 1.9368e-009 -4.3498e-009 -2.22167 -0.733487 0.20892 -2.03217e-016 0 -3.88251e-019 -10.8704 -10.1199 -1.31496 -0.0884798 27.9816 0.197549 -2.54173 -10.9755 -8.48517 2.03217e-016 0 3.88251e-019 -4.34208 6.61634 1.45084 0.162253 22.88 -0.27739 1.87138 -13.248 3.94088 
